<svg xmlns="http://www.w3.org/2000/svg" width="289.70056mm" height="287.93268mm" viewBox="0 0 289.70056 287.93268"><defs><clipPath id="a" clipPathUnits="userSpaceOnUse"><path d="M643.838 335.957h182.88v-138.96h-182.88z"/></clipPath><clipPath id="b" clipPathUnits="userSpaceOnUse"><path d="M823.838 335.957h182.882v-138.96H823.838Z"/></clipPath><clipPath id="c" clipPathUnits="userSpaceOnUse"><path d="M1003.84 335.957h182.88v-138.96h-182.88z"/></clipPath></defs><path d="m-42.968 35.905-1.607.766 33.636 115.526c-.408 1.226-37.745 113.763-37.745 113.763l1.067.918C-32.04 280.232 18.67 292.07 72.96 295.032c38.803 2.117 111.757 1.485 164.387-26.493l1.55-.825s-36.884-114.142-37.311-115.453c.447-1.309 39.43-114.766 39.43-114.766l-1.574-.842C194.176 12.5 60.62-13.48-42.968 35.905" style="fill:#006cb8;fill-opacity:1;fill-rule:nonzero;stroke:none;stroke-width:2.0707984" transform="translate(48.684 -7.843)"/><path d="M121.86 13.02c50.056 3.545 92.85 15.732 114.025 26.527l-38.713 112.67s35.57 110.073 36.649 113.399c-51.617 26.707-122.643 27.305-160.632 25.237-52.323-2.854-100.908-13.854-116.984-26.335.928-2.791 37.24-112.239 37.24-112.239S-38.567 42.33-39.549 38.953C17.681 12.175 79.718 10.033 121.861 13.02" style="fill:#fff;fill-opacity:1;fill-rule:nonzero;stroke:none;stroke-width:2.0707984" transform="translate(48.684 -7.843)"/><path d="M-29.57 43.733C67.49.82 184.027 25.241 225.733 44.379l-37.039 107.876 34.398 109.226C137.97 300.18-.898 281.337-32.765 260.178L1.422 152.255Z" style="fill:#006cb8;fill-opacity:1;fill-rule:nonzero;stroke:none;stroke-width:2.0707984" transform="translate(48.684 -7.843)"/><path d="M96.299 76.655c-8.532-.006-17.854.829-26.883 3.184-6.281 2.091-6.281 3.833-4.538 9.422 1.746 5.575 3.494 10.285 4.538 13.083 1.047 2.79-.872 3.492-3.316 4.877-2.441 1.404-1.94 2.4-.52 5.591a17.936 17.936 0 0 0 1.568 2.792c1.396 1.743 2.381 2.128 4.361.341 3.49-3.133 5.757-1.213 1.05 2.448-10.325 8.027-14.307 23.897-14.307 37.502v60.718c0 5.235 1.395 7.67 7.328 9.064 11.864 2.793 45.638 5.032 60.708 0 7.328-2.44 7.678-4.533 8.024-9.064v-60.37c0-13.599-.872-27.556-14.479-36.982-2.79-3.316-2.441-5.405 1.746-2.268 3.49 2.442 5.059-1.566 5.759-2.968a36.959 36.959 0 0 0 1.741-4.186c.35-1.044-1.393-2.792-3.487-3.836-2.094-1.044-.35-3.141.696-5.23 1.05-2.1 3.491-8.377 4.887-11.512 1.394-3.148 3.84-6.29-3.837-8.727-4.8-1.526-16.82-3.87-31.04-3.879zm1.506 3.803c8.323.027 18.065 1.07 28.483 4.258 1.92 1.054 1.571 1.397.873 3.143-.697 1.744-6.978 15.699-8.024 18.492-1.048 2.792-3.49 4.192-3.49.694 0-2.44-1.045-1.211-2.269-3.487-.664-1.234-.698-7.5.524-9.244 1.22-1.746 1.568-2.965-1.917-2.965H82.677c-2.966 0-3.838.528-2.444 3.319 1.396 2.79 1.22 7.494.872 9.238-1.394 2.271-1.744 2.271-2.094 4.189-.348 1.918-2.093 2.443-3.315-1.05l-1.744-5.396s-2.268-5.768-3.837-11c-1.572-5.233-3.314-6.105 2.615-7.321 3.779-.776 12.911-2.908 25.075-2.87zM83.198 111.24h28.087a1.22 1.22 0 0 1 1.222 1.217c0 .672-.55 1.226-1.222 1.226H83.198a1.229 1.229 0 0 1-1.221-1.226 1.22 1.22 0 0 1 1.221-1.217zM-7.9 234.948s-.176.65.998-3.721c1.545-5.641 3.645-5.144 7.52-4.109 3.87 1.04 12.449 3.332 15.945 4.274 3.501.936 4.56 2.854 3.44 7.033 0 0-.987 3.671-1.136 4.235-.151.558-.341.913-1.095.708-.75-.205-1.932-.516-2.626-.704-.683-.189-1.275-.344-1.075-1.09.2-.755.485-1.816.736-2.747.254-.943.615-1.18-.69-1.529-1.32-.354-14.204-3.806-15.138-4.054-.934-.257-1.358.105-1.507.664-.15.562-.984 3.689-1.272 4.749-.287 1.062.338 1.364 1.086 1.565.747.197 12.936 3.463 15.996 4.285 3.061.824 4.285 3.025 3.678 5.27-.598 2.25-1.907 7.121-2.762 10.313-.851 3.182-3.423 3.903-5.923 3.236-2.5-.675-15.028-4.032-18.086-4.856-3.067-.812-3.663-2.586-3.028-4.96.64-2.375 1.638-6.119 1.893-7.057.248-.938.69-.818 1.129-.7.435.11 2.186.58 2.934.783.754.203.84.49.652 1.183-.186.683-.797 2.984-1.07 3.996-.267 1.01.462.99.958 1.133.502.134 12.206 3.266 14.11 3.77 1.91.512 2.241.131 2.59-1.175.347-1.315 1.223-4.56 1.389-5.184.161-.623.275-1.014-.93-1.341-.69-.187-11.089-2.97-15.214-4.074-4.125-1.108-5.407-2.773-4.705-5.394.706-2.63 1.203-4.502 1.203-4.502M37.217 262.658l3.75-19.998h.012l6.637 1.245h-.018l-.878 4.657a.74.74 0 0 0 .586.855l3.388.636a.737.737 0 0 0 .861-.586l1.908-10.17a.736.736 0 0 0-.586-.857l-2.174-.405-22.276-4.177-2.114-.396a.729.729 0 0 0-.851.584l-1.908 10.17a.733.733 0 0 0 .586.857l3.384.638a.738.738 0 0 0 .86-.586l.877-4.659 6.855 1.282.023.006-3.756 20 .011-.047-4.174-.777a.727.727 0 0 0-.854.586l-.904 4.79c-.067.4.188.776.588.853l13.18 2.472c.396.07.781-.184.856-.584l.898-4.793a.732.732 0 0 0-.586-.854l-4.174-.784zM62.143 257.296l7.848.396.006.012-3.551-7.178-4.303 6.809zm21.33 9.429a.734.734 0 0 1 .7.766l-.245 4.866a.738.738 0 0 1-.772.698l-13.39-.67a.735.735 0 0 1-.7-.77l.244-4.863a.729.729 0 0 1 .764-.7l4.047.199-1.7-3.483.023-.03-13.34-.662v.023l-2.119 3.305 4.393.215a.733.733 0 0 1 .697.767l-.242 4.87a.726.726 0 0 1-.772.692l-13.396-.673a.73.73 0 0 1-.694-.762l.246-4.867a.73.73 0 0 1 .77-.693l3.397.168 12.56-19.706-3.575-.182a.721.721 0 0 1-.692-.766l.243-4.865a.734.734 0 0 1 .766-.7l13.394.673a.72.72 0 0 1 .691.77l-.242 4.865a.73.73 0 0 1-.766.696l-4.214-.213.002-.024 10.161 20.866zM99.61 266.638v-20.35h6.768-.024v4.751c0 .404.332.729.737.729h3.442a.73.73 0 0 0 .737-.729v-10.352a.733.733 0 0 0-.737-.733H83.519a.735.735 0 0 0-.737.733v10.352c0 .404.33.729.737.729h3.446a.728.728 0 0 0 .731-.729v-4.75h7.006v20.35-.042h-4.247a.739.739 0 0 0-.737.738v4.872a.74.74 0 0 0 .737.737h13.406a.742.742 0 0 0 .737-.737v-4.872a.74.74 0 0 0-.737-.738h-4.247zM127.212 265.993l4.218-.276a.744.744 0 0 1 .78.686l.31 4.86c.029.41-.274.76-.678.783l-13.383.867a.732.732 0 0 1-.781-.685l-.317-4.86a.748.748 0 0 1 .685-.787l4.225-.265h.017l-1.317-20.275-.011.006-4.355.277a.725.725 0 0 1-.775-.685l-.32-4.864a.736.736 0 0 1 .683-.77l13.385-.868a.731.731 0 0 1 .779.685l.31 4.858a.725.725 0 0 1-.679.78l-4.083.268h-.03l1.313 20.265zM190.47 234.733l3.285 13.926.012-.023-18.18-10.412.035.004 3.272-.77a.733.733 0 0 0 .543-.887l-1.115-4.74a.732.732 0 0 0-.88-.546l-13.054 3.081a.724.724 0 0 0-.545.878l1.12 4.746a.72.72 0 0 0 .877.545l3.99-.94-.006.006 4.66 19.755h.011l-3.986.945a.725.725 0 0 0-.543.882l1.114 4.74a.733.733 0 0 0 .88.542l13.055-3.077a.737.737 0 0 0 .549-.88l-1.123-4.746a.733.733 0 0 0-.886-.543l-4.293 1.015.012-.006-3.344-14.158-.012.004 18.494 10.592v-.006l-3.371.8a.733.733 0 0 0-.555.886l1.12 4.738a.735.735 0 0 0 .88.544l13.057-3.077a.739.739 0 0 0 .545-.88l-1.123-4.748a.736.736 0 0 0-.882-.545l-4.168.988h.006l-4.668-19.762v-.006l4.169-.986a.723.723 0 0 0 .54-.876l-1.112-4.744a.74.74 0 0 0-.888-.546l-13.052 3.075a.735.735 0 0 0-.54.886l1.12 4.744a.734.734 0 0 0 .875.547l4.1-.973zM109.712 39.166s-.07.661.423-3.826c.667-5.788 2.808-5.618 6.784-5.184 3.976.433 11.58 1.27 15.17 1.661 3.595.4 4.92 2.125 4.455 6.422 0 0-.41 3.762-.472 4.342-.062.574-.207.947-.971.866-.777-.087-1.99-.226-2.699-.298-.706-.077-1.31-.143-1.228-.916.09-.768.205-1.86.313-2.816.104-.967.429-1.255-.915-1.404-1.348-.15-13.377-1.464-14.344-1.57-.96-.105-1.322.303-1.384.887-.062.571-.41 3.78-.534 4.87-.122 1.083.538 1.288 1.305 1.375.774.083 12.091 1.33 15.228 1.673 3.14.34 4.674 2.33 4.426 4.635-.255 2.31-.804 7.31-1.16 10.58-.362 3.27-2.785 4.367-5.349 4.087-2.564-.287-14.233-1.565-17.374-1.911-3.148-.346-3.999-1.996-3.732-4.434.27-2.435.69-6.278.796-7.245.101-.96.557-.907 1.006-.86.451.053 2.239.25 3.011.331.772.079.899.357.82 1.059-.077.71-.331 3.07-.447 4.106-.117 1.033.602.909 1.112.967.522.059 11.34 1.247 13.29 1.462 1.957.211 2.224-.211 2.367-1.557.15-1.344.52-4.684.584-5.32.072-.64.116-1.042-1.116-1.185-.706-.074-10.188-1.118-14.419-1.578-4.23-.466-5.755-1.911-5.452-4.605.294-2.698.507-4.614.507-4.614M143.5 59.129c-.204.946.159 1.221 1.11 1.426.943.212 13.165 2.873 13.797 3.01.636.14 1.23.266 1.466-.804.23-1.07 3.69-16.948 3.856-17.71.161-.758-.064-1.07-1.01-1.271-.945-.209-13.36-2.914-13.743-2.997-.751-.165-1.482.012-1.747 1.208-.255 1.193-1.945 8.946-1.945 8.946s-1.58 7.245-1.785 8.192m-3.265-8.04s1.675-7.67 2.632-12.078c.962-4.41 3.174-5.334 6.458-4.622 3.268.714 12.386 2.704 15.66 3.41 3.491.76 4.688 3.003 3.85 6.867-.843 3.846-3.689 16.881-4.59 21.042-.9 4.156-2.917 4.96-6.446 4.193-3.529-.766-12.249-2.665-15.842-3.452-3.59-.785-4.414-2.999-3.82-5.707.588-2.71 2.098-9.652 2.098-9.652M19.496 72.038a.741.741 0 0 1-.509.905L6.531 76.45l-12.205 3.44a.735.735 0 0 1-.903-.503l-1.323-4.68a.731.731 0 0 1 .511-.897l4.077-1.154-5.491-19.488-4.206 1.185a.73.73 0 0 1-.897-.514l-1.321-4.67a.744.744 0 0 1 .505-.907l12.872-3.623a.73.73 0 0 1 .903.509l1.315 4.674a.734.734 0 0 1-.505.903l-3.951 1.108 5.492 19.496 3.474-.977 8.35-2.357-1.495-5.313a.734.734 0 0 1 .503-.903l3.342-.943a.74.74 0 0 1 .905.506zM37.065 47.055l-2.319 7.392h.035l7.41-1.6-.024.029zm16.811 11.793v-.018l3.634-.787c.4-.076.783.17.866.564l1.027 4.748a.724.724 0 0 1-.559.866L45.778 67.05a.741.741 0 0 1-.874-.564l-1.025-4.744a.742.742 0 0 1 .558-.874l3.958-.847.011.006-2.571-2.947.005-.011-12.795 2.768.018-.006-1.185 3.742.035.012 4.04-.88a.734.734 0 0 1 .866.56l1.027 4.75a.732.732 0 0 1-.56.875L24.223 71.71a.733.733 0 0 1-.874-.564l-1.029-4.744a.741.741 0 0 1 .564-.868l3.514-.76-.024-.004 6.96-22.213-3.634.785a.72.72 0 0 1-.864-.562l-1.029-4.748a.731.731 0 0 1 .553-.872l13.071-2.82a.736.736 0 0 1 .876.561l1.025 4.746a.741.741 0 0 1-.557.874l-4.115.882zM96.493 35.346l-4.005-.136a.738.738 0 0 1-.71-.754l.168-4.856a.728.728 0 0 1 .75-.708l13.366.447a.74.74 0 0 1 .707.762l-.17 4.852a.728.728 0 0 1-.752.71l-3.905-.128-8.526 20.267 3.746-.222a.732.732 0 0 1 .77.691l.288 4.844a.737.737 0 0 1-.685.78l-13.35.78a.73.73 0 0 1-.773-.686l-.282-4.848a.725.725 0 0 1 .683-.772l3.972-.239-8.177-14.346-6.372 15.206 3.715-.224a.731.731 0 0 1 .77.694l.282 4.845a.727.727 0 0 1-.688.775l-13.344.785a.733.733 0 0 1-.772-.684l-.286-4.856a.73.73 0 0 1 .683-.774l4.1-.236-11.184-18.867-3.961.592a.732.732 0 0 1-.835-.617L51 33.621a.727.727 0 0 1 .608-.828l13.23-1.99a.728.728 0 0 1 .827.619l.725 4.796c.06.4-.22.774-.62.834l-3.839.576 8.19 14.005 6.337-15.819-3.879.23a.723.723 0 0 1-.764-.69l-.294-4.85a.736.736 0 0 1 .694-.77l13.346-.787a.735.735 0 0 1 .77.688l.286 4.85a.737.737 0 0 1-.683.774l-3.876.23 8.219 15.092zM179.436 47.826l-3.854-1.302a.727.727 0 0 1-.464-.924l1.553-4.61a.73.73 0 0 1 .922-.455l12.671 4.27a.72.72 0 0 1 .462.922l-1.549 4.607a.733.733 0 0 1-.928.46l-3.193-1.073-.004.006 9.88 18.335h.012l4.543-13.485-3.986-1.344a.723.723 0 0 1-.456-.922l1.55-4.607a.732.732 0 0 1 .925-.46l12.677 4.264c.381.13.588.549.456.932l-1.553 4.6a.727.727 0 0 1-.92.461l-4.052-1.356-6.455 19.19 4.036 1.356a.726.726 0 0 1 .462.928l-1.549 4.603a.734.734 0 0 1-.928.464l-12.667-4.268a.73.73 0 0 1-.462-.928l1.551-4.605a.735.735 0 0 1 .922-.462l3.284 1.114-10.068-18.685h-.006l-4.622 13.725 4.164 1.41a.725.725 0 0 1 .458.922l-1.549 4.604a.735.735 0 0 1-.928.463l-12.667-4.27a.724.724 0 0 1-.463-.921l1.55-4.612a.736.736 0 0 1 .924-.46l3.862 1.301 6.463-19.188M141.738 263.362c.101.967.538 1.108 1.505 1.017.965-.099 13.45-1.367 14.092-1.435.644-.068 1.253-.13 1.147-1.222-.116-1.097-1.768-17.312-1.843-18.08-.083-.778-.393-1-1.36-.903-.968.094-13.645 1.382-14.03 1.419-.775.09-1.417.472-1.292 1.696.126 1.23.927 9.14.927 9.14l.854 8.368m-5.62-6.649s-.787-7.825-1.247-12.332c-.466-4.51 1.36-6.077 4.709-6.413 3.346-.344 12.652-1.29 15.999-1.636 3.566-.356 5.4 1.406 5.8 5.347.406 3.926 1.748 17.24 2.185 21.483.432 4.249-1.23 5.647-4.84 6.011-3.599.369-12.503 1.274-16.173 1.648-3.671.373-5.141-1.484-5.421-4.249-.288-2.77-1.013-9.859-1.013-9.859" style="fill:#fff;fill-opacity:1;fill-rule:nonzero;stroke:none;stroke-width:2.0707984" transform="translate(48.684 -7.843)"/></svg>